#!OML:ASF F:\VICON\USERDATA\INSTALL\rory3\rory3.ASF
:FULLY-SPECIFIED
:DEGREES
659
root 3.62308 19.2304 7.03502 14.282 -6.75053 -5.91437
lowerback -0.499666 -2.32147 4.67607
upperback -6.12724 -2.86542 2.61215
thorax -6.19284 -1.60079 0.254596
lowerneck -10.1951 -11.3245 -12.206
upperneck 18.1175 -14.5806 5.48714
head 8.6367 -7.26956 2.11112
rclavicle -4.27896e-014 -1.12065e-014
rhumerus -43.8226 9.32703 -82.4564
rradius 44.34
rwrist 7.28481
rhand -23.2625 -48.4704
rfingers 7.12502
rthumb 3.18956 -78.4263
lclavicle -4.27896e-014 -1.12065e-014
lhumerus -48.8571 -22.3107 84.1631
lradius 60.4139
lwrist -3.18423
lhand -31.3819 -42.3103
lfingers 7.12502
lthumb -4.65187 -12.3814
rfemur -100.306 3.7742 27.698
rtibia 139.531
rfoot -4.01095 -6.08905
rtoes -5.20455
lfemur -11.3598 0.490005 -19.228
ltibia 8.59638
lfoot 17.5112 3.56917
ltoes -10.4174
660
root 3.60599 19.0488 7.02815 14.6565 -6.74641 -5.58491
lowerback -0.819431 -2.35622 4.52133
upperback -6.22359 -2.9366 2.56521
thorax -6.10722 -1.63049 0.283115
lowerneck -10.2299 -11.2411 -12.0768
upperneck 17.8737 -14.4374 5.35233
head 8.52579 -7.20453 2.07234
rclavicle 3.55898e-014 -2.25621e-014
rhumerus -43.6754 9.46953 -82.6663
rradius 44.0912
rwrist 6.68222
rhand -23.9115 -49.0949
rfingers 7.12502
rthumb 2.56288 -79.0592
lclavicle 3.55898e-014 -2.25621e-014
lhumerus -48.9093 -21.9437 84.3067
lradius 60.1806
lwrist -2.85269
lhand -31.4973 -42.0447
lfingers 7.12502
lthumb -4.76337 -12.1183
rfemur -100.489 3.46673 27.5512
rtibia 139.54
rfoot -3.84189 -6.23633
rtoes -5.96531
lfemur -12.8453 0.58886 -19.7037
ltibia 10.6335
lfoot 15.2387 4.50472
ltoes -13.0278
661
root 3.59061 18.8484 7.0137 14.9526 -6.7056 -5.09335
lowerback -0.931968 -2.45545 4.20933
upperback -6.34202 -3.08499 2.4843
thorax -6.15841 -1.69266 0.378021
lowerneck -10.2291 -11.1166 -11.9174
upperneck 17.7098 -14.2403 5.15514
head 8.42439 -7.11902 2.01687
rclavicle 2.79067e-014 -1.27222e-014
rhumerus -43.7455 9.71222 -82.8821
rradius 44.3559
rwrist 6.42487
rhand -23.8992 -50.0143
rfingers 7.12502
rthumb 2.5747 -79.9785
lclavicle 2.79067e-014 -1.27222e-014
lhumerus -49.0904 -21.375 84.3805
lradius 60.1607
lwrist -2.54634
lhand -31.7318 -41.9761
lfingers 7.12502
lthumb -4.9898 -12.0548
rfemur -100.814 2.75049 26.9281
rtibia 139.509
rfoot -4.08558 -5.74387
rtoes -3.81623
lfemur -14.5028 1.69205 -20.6045
ltibia 13.4465
lfoot 10.9609 3.52562
ltoes -16.1869
662
root 3.5721 18.6373 6.97855 15.2289 -6.74155 -4.67717
lowerback -0.819863 -2.49476 3.88265
upperback -6.42999 -3.14189 2.39008
thorax -6.30277 -1.70861 0.473047
lowerneck -10.5402 -10.9742 -11.6799
upperneck 17.708 -14.0266 5.06381
head 8.43398 -7.0036 1.96643
rclavicle 3.73956e-014 -1.75924e-014
rhumerus -43.8115 9.66063 -83.016
rradius 44.8467
rwrist 6.22738
rhand -23.3133 -50.9616
rfingers 7.12502
rthumb 3.14055 -80.9182
lclavicle 3.73956e-014 -1.75924e-014
lhumerus -49.1373 -20.9551 84.3816
lradius 60.2214
lwrist -2.34679
lhand -31.7044 -42.1443
lfingers 7.12502
lthumb -4.96331 -12.2224
rfemur -101.377 2.39157 26.5564
rtibia 139.543
rfoot -3.9661 -5.64118
rtoes -3.92102
lfemur -16.2967 3.16091 -21.5074
ltibia 16.6781
lfoot 6.05588 1.85253
ltoes -19.3072
